<svg width="16" height="16" viewBox="0 0 16 16" fill="none" xmlns="http://www.w3.org/2000/svg">
  <!-- Chat bubble with C -->
  <path d="M2 2.5A1.5 1.5 0 0 1 3.5 1h9A1.5 1.5 0 0 1 14 2.5v7A1.5 1.5 0 0 1 12.5 11H5.7l-2.85 2.85A.5.5 0 0 1 2 13.5V2.5z" fill="currentColor" opacity="0.85"/>
  <path d="M9.2 4.2C8.85 3.75 8.2 3.5 7.4 3.5c-1.55 0-2.6 1.1-2.6 2.75 0 1.65 1.05 2.75 2.6 2.75.8 0 1.45-.25 1.8-.7l.05-.07V7.6l-.7.55c-.25.3-.65.45-1.15.45-.9 0-1.5-.7-1.5-1.85S6.5 4.9 7.4 4.9c.5 0 .9.15 1.15.45l.7.55V5.27l-.05-.07z" fill="var(--vscode-editor-background, #1e1e1e)"/>
</svg>
